<svg xmlns="http://www.w3.org/2000/svg" xmlns:xlink="http://www.w3.org/1999/xlink" width="42px" height="37px">
                        <path fill-rule="evenodd" fill="rgb(255, 255, 255)" d="M42.000,26.804 C42.000,32.435 37.524,36.999 32.002,36.999 C26.480,36.999 22.004,32.435 22.004,26.804 C22.004,26.799 22.005,26.796 22.005,26.791 C21.993,26.493 21.405,10.252 31.749,2.508 C41.077,-4.476 31.014,4.009 28.764,17.167 C29.781,16.811 30.867,16.610 32.002,16.610 C37.524,16.610 42.000,21.174 42.000,26.804 ZM10.007,36.999 C4.485,36.999 0.009,32.435 0.009,26.804 C0.009,26.799 0.010,26.796 0.010,26.791 C-0.002,26.493 -0.590,10.252 9.753,2.508 C19.081,-4.476 9.019,4.009 6.769,17.167 C7.786,16.811 8.872,16.610 10.007,16.610 C15.529,16.610 20.005,21.174 20.005,26.804 C20.005,32.435 15.529,36.999 10.007,36.999 Z"/>
                        </svg>